<svg xmlns="http://www.w3.org/2000/svg" xmlns:xlink="http://www.w3.org/1999/xlink" width="80" zoomAndPan="magnify" viewBox="0 0 60 59.249999" height="79" preserveAspectRatio="xMidYMid meet" version="1.0"><defs><clipPath id="2e6475ba6c"><path d="M 4.558594 3.109375 L 52.625 3.109375 L 52.625 51.175781 L 4.558594 51.175781 Z M 4.558594 3.109375 " clip-rule="nonzero"/></clipPath><clipPath id="e4286f265b"><path d="M 28.59375 3.109375 C 15.320312 3.109375 4.558594 13.871094 4.558594 27.144531 C 4.558594 40.417969 15.320312 51.175781 28.59375 51.175781 C 41.867188 51.175781 52.625 40.417969 52.625 27.144531 C 52.625 13.871094 41.867188 3.109375 28.59375 3.109375 Z M 28.59375 3.109375 " clip-rule="nonzero"/></clipPath></defs><g clip-path="url(#2e6475ba6c)"><g clip-path="url(#e4286f265b)"><path fill="#ffffff" d="M 4.558594 3.109375 L 52.625 3.109375 L 52.625 51.175781 L 4.558594 51.175781 Z M 4.558594 3.109375 " fill-opacity="1" fill-rule="nonzero"/></g></g><path fill="#ffc107" d="M 48.398438 22.414062 L 46.757812 22.414062 L 46.757812 22.328125 L 28.425781 22.328125 L 28.425781 30.476562 L 39.9375 30.476562 C 38.257812 35.21875 33.746094 38.625 28.425781 38.625 C 21.675781 38.625 16.207031 33.152344 16.207031 26.402344 C 16.207031 19.65625 21.675781 14.183594 28.425781 14.183594 C 31.542969 14.183594 34.375 15.359375 36.535156 17.277344 L 42.292969 11.515625 C 38.65625 8.125 33.789062 6.035156 28.425781 6.035156 C 17.179688 6.035156 8.058594 15.15625 8.058594 26.402344 C 8.058594 37.652344 17.179688 46.769531 28.425781 46.769531 C 39.675781 46.769531 48.792969 37.652344 48.792969 26.402344 C 48.792969 25.039062 48.652344 23.703125 48.398438 22.414062 Z M 48.398438 22.414062 " fill-opacity="1" fill-rule="nonzero"/><path fill="#ff3d00" d="M 10.40625 16.921875 L 17.097656 21.832031 C 18.910156 17.347656 23.292969 14.183594 28.425781 14.183594 C 31.542969 14.183594 34.375 15.359375 36.535156 17.277344 L 42.292969 11.515625 C 38.65625 8.125 33.789062 6.035156 28.425781 6.035156 C 20.601562 6.035156 13.820312 10.453125 10.40625 16.921875 Z M 10.40625 16.921875 " fill-opacity="1" fill-rule="nonzero"/><path fill="#4caf50" d="M 28.425781 46.769531 C 33.6875 46.769531 38.46875 44.757812 42.082031 41.484375 L 35.777344 36.148438 C 33.734375 37.699219 31.191406 38.625 28.425781 38.625 C 23.128906 38.625 18.628906 35.246094 16.9375 30.53125 L 10.292969 35.648438 C 13.664062 42.246094 20.511719 46.769531 28.425781 46.769531 Z M 28.425781 46.769531 " fill-opacity="1" fill-rule="nonzero"/><path fill="#1976d2" d="M 48.398438 22.414062 L 46.757812 22.414062 L 46.757812 22.328125 L 28.425781 22.328125 L 28.425781 30.476562 L 39.9375 30.476562 C 39.128906 32.753906 37.664062 34.71875 35.773438 36.148438 C 35.777344 36.148438 35.777344 36.148438 35.777344 36.148438 L 42.082031 41.480469 C 41.636719 41.886719 48.792969 36.585938 48.792969 26.402344 C 48.792969 25.039062 48.652344 23.703125 48.398438 22.414062 Z M 48.398438 22.414062 " fill-opacity="1" fill-rule="nonzero"/></svg>